<svg width="640" height="640" viewBox="0 0 640 640" fill="none" xmlns="http://www.w3.org/2000/svg">
<g clip-path="url(#clip0)">
<g filter="url(#filter0_i)">
<path d="M71.1147 158.312C78.776 161.161 85.7035 166.474 92.5846 170.856C104.281 178.309 116.033 185.678 127.711 193.164C160.302 214.059 192.723 235.214 225.99 255.019C251.112 269.974 277.691 284.059 305.857 292.282C316.846 295.489 328.217 298.332 339.677 299.093C352.378 299.938 365.856 297.611 378.32 295.304C385.696 293.941 393.048 292.393 400.299 290.458C427.284 283.255 458.678 273.016 473.808 247.659C478.505 239.782 482.43 230.476 481.966 221.118C481.631 214.383 478.4 208.146 475.025 202.478C467.679 190.141 457.256 179.365 446.916 169.485C442.848 165.599 438.643 161.87 434.525 158.041C433.141 156.755 430.577 155.375 430.057 153.497C432.183 153.282 434.513 154.414 436.532 154.987C441.965 156.533 447.354 158.371 452.683 160.243C471.776 166.944 490.887 174.248 508.606 184.11C515.964 188.205 526.702 193.767 526.745 203.518C526.769 209.104 524.359 214.742 522.31 219.841C517.99 230.597 511.539 241.407 509.669 252.957C508.54 259.939 507.869 268.076 512.939 273.783C519.093 280.706 530.202 278.181 537.961 276.179C548.071 273.57 558.829 269.102 569.445 269.733C572.934 269.941 576.282 271.299 579.396 272.787C588.893 277.328 598.95 286.382 599.482 297.544C584.513 297.838 571.013 304.015 557.995 310.606C537.841 320.81 519.934 336.094 507.107 354.709C498.256 367.555 491.934 382.294 486.99 397.026C484.864 403.359 482.429 409.799 481.111 416.358C479.782 422.976 479.216 429.198 480.816 435.821C483.267 445.974 488.729 454.647 483.859 465.142C481.077 471.138 476.987 477.956 472.092 482.455C466.294 487.788 458.719 491.503 451.982 495.514C438.439 503.578 423.937 508.421 408.885 512.895C390.739 518.293 372.424 522.801 353.91 526.72C343.302 528.967 332.614 530.818 321.947 532.75C318.782 533.324 315.602 533.882 312.411 534.298C310.989 534.486 309.505 534.888 308.102 534.476C309.655 531.903 313.727 530.178 316.16 528.495C323.552 523.378 331.421 518.962 338.808 513.847C357.289 501.057 376.332 488.905 392.826 473.437C400.307 466.426 408.013 458.97 412.951 449.866C418.586 439.479 417.494 427.049 415.784 415.751C413.015 397.45 403.25 378.435 389.545 365.845C384.347 361.068 378.278 357.186 372.218 353.621C363.979 348.778 355.152 344.938 345.725 343.202C332.609 340.786 319.039 340.526 305.743 340.059C288.146 339.44 270.543 339.107 252.939 338.796C200.106 337.863 147.264 337.463 94.4275 336.794C71.8254 336.509 49.2275 336.164 26.6255 335.711C20.5366 335.59 14.4502 335.408 8.3675 335.098C6.09965 334.983 2.70359 335.352 0.769342 334.046C1.7089 333.067 3.25517 332.855 4.54114 332.573C7.49397 331.929 10.513 331.623 13.509 331.243C25.099 329.765 36.8106 328.757 48.4642 327.897C92.4131 324.655 136.286 320.318 180.183 316.513C194.282 315.291 208.732 313.89 222.567 310.812C227.031 309.818 234.57 308.458 236.718 303.749C238.935 298.893 234.136 293.575 231.099 290.211L231.026 290.129C222.111 280.255 211.798 271.832 201.725 263.192C172.531 238.148 141.55 215.04 111.27 191.335C102.243 184.267 93.256 177.15 84.3185 169.969C80.286 166.729 74.4621 163.333 71.6947 158.895L71.1147 158.312Z" fill="black"/>
<path d="M553.168 325.914C555.552 324.037 558.461 322.735 561.115 321.309C569.308 316.905 577.92 313.631 586.885 311.122L586.975 311.097C589.747 310.319 592.657 309.503 595.531 309.251C596.366 309.177 598.226 308.829 598.458 310.003C598.877 312.11 595.786 315.541 594.678 317.186C590.243 323.779 584.898 330.146 579.196 335.677C560.737 353.581 540.834 370.228 520.898 386.458C515.518 390.836 510.255 395.362 504.862 399.723C503.011 401.22 500.482 404.164 498.132 404.755C497.204 404.99 497.164 403.891 497.259 403.258C497.516 401.537 498.229 399.837 498.856 398.222C501.579 391.221 504.41 384.255 507.649 377.475C514.47 363.202 524.223 349.816 535.971 339.183C541.411 334.258 547.458 330.419 553.168 325.914Z" fill="black"/>
<path d="M276.329 350.761L276.121 351.582C279.459 356.677 285.815 360.841 290.523 364.618C302.698 374.384 315.197 382.924 329.354 389.599C334.039 391.808 338.988 393.909 343.986 395.294C345.319 395.665 347.953 396.818 349.241 395.942C351.271 394.559 352.447 390.281 353.413 388.12C356.467 381.296 359.248 374.228 359.633 366.69C359.811 363.191 359.748 359.558 356.355 357.721C351.4 355.037 345.13 354.134 339.626 353.255C326.474 351.156 312.833 351.177 299.543 350.721L299.493 350.719C294.196 350.538 288.872 350.355 283.571 350.434C281.237 350.47 278.599 350.167 276.329 350.761Z" fill="black"/>
<path d="M413.886 156.388L413.817 156.66C410.747 156.43 407.69 155.399 404.715 154.644C400.566 153.591 396.379 152.676 392.226 151.622C379.677 148.44 367.104 145.398 354.558 142.216L332.114 136.525C328.54 135.618 323.958 135.018 320.686 133.337C318.117 132.015 315.748 129.84 313.412 128.141C309.428 125.244 305.372 122.448 301.456 119.457C299.987 118.334 298.498 117.236 297.125 115.994C296.819 115.719 295.876 115.031 296.157 114.521C296.469 113.951 297.636 114.386 298.083 114.495C299.785 114.908 301.435 115.445 303.118 115.912C310.367 117.923 317.58 120.161 324.87 122.015C343.053 126.644 361.031 132.365 379.038 137.632C387.219 140.026 396.991 141.91 404.251 146.555C407.907 148.893 411.387 152.858 413.886 156.388Z" fill="black"/>
<path d="M452.801 192.472L452.731 192.746C449.112 192.575 445.319 191.304 441.816 190.415C435.948 188.928 430.036 187.44 424.131 186.082C412.252 183.351 400.501 180.077 388.649 177.225C380.602 175.291 372.306 173.706 364.409 171.207C362.491 170.599 360.926 168.515 359.488 167.166C355.97 163.86 352.495 160.514 349.092 157.09C347.941 155.927 346.847 154.718 345.754 153.499C345.483 153.198 344.765 152.587 345.026 152.114C345.323 151.571 346.401 151.86 346.863 151.928C348.531 152.179 350.213 152.49 351.85 152.89C358.982 154.634 366.147 156.224 373.269 158.03C386.963 161.504 400.645 165.026 414.202 168.98C421.656 171.154 430.349 172.52 437.255 176.168C439.366 177.282 441.15 179.542 442.817 181.222C446.249 184.673 450.261 188.287 452.801 192.472Z" fill="black"/>
<path d="M378.105 186.057C385.21 188.743 393.347 189.776 400.72 191.647C417.74 195.963 434.782 200.138 451.801 204.454L460.56 206.676C461.813 206.994 463.659 207.127 464.707 207.923C466.426 209.226 467.635 213.251 468.463 215.215C469.061 216.631 470.804 219.647 470.214 221.212C469.712 222.542 465.057 221.26 464.024 221.081C457.694 219.975 451.344 218.607 445.115 217.033C432.081 213.739 418.865 210.802 406.016 206.851C400.7 205.217 394.051 204.255 389.472 200.9C387.976 199.805 387.076 197.722 385.986 196.236C383.675 193.082 380.96 190.071 378.96 186.711L378.105 186.057Z" fill="black"/>
<path d="M403.454 219.572C404.151 218.636 407.319 219.714 408.265 219.928C412.992 221.002 417.759 221.898 422.461 223.085C433.544 225.886 444.729 228.297 455.82 231.108C458.631 231.821 461.502 232.426 464.276 233.278C465.081 233.524 466.777 233.758 467.239 234.534C467.732 235.363 466.93 236.719 466.582 237.474C465.414 240.027 464.026 242.596 462.397 244.885C459.885 248.414 452.668 245.266 449.099 244.408C439.448 242.088 429.813 239.662 420.188 237.221L411.429 234.999C410.2 234.688 408.546 234.547 407.457 233.878C406.615 233.36 406.422 231.826 406.132 230.95C405.267 228.342 404.445 225.728 403.761 223.065C403.538 222.199 402.851 220.38 403.454 219.572Z" fill="black"/>
<path d="M406.501 245.451C407.064 244.886 408.253 245.409 408.894 245.572L414.915 247.098C423.474 249.269 432.108 251.32 440.544 253.914C442.803 254.607 445.108 255.27 447.295 256.169L447.309 256.174C448.139 256.516 449.43 257.048 448.638 258.097C446.5 260.93 442.187 262.696 439.202 264.473C438.16 265.094 436.728 266.35 435.495 266.442C433.656 266.577 431.355 265.541 429.579 265.091L416.988 261.899L408.23 259.677C407.171 259.408 405.459 259.298 404.599 258.585C403.847 257.963 404.387 256.418 404.513 255.616C404.898 253.197 405.315 250.784 405.748 248.374C405.892 247.574 405.9 246.053 406.501 245.451Z" fill="black"/>
<path d="M400.259 270.485C400.936 269.781 402.339 270.418 403.125 270.617C405.782 271.291 408.503 271.915 411.086 272.849L411.115 272.859C411.963 273.166 414.071 273.929 412.986 275.102C412.229 275.919 410.708 276.231 409.681 276.554C406.845 277.446 403.902 278.102 401.008 278.77C400.213 278.953 397.856 279.782 397.167 279.207C396.675 278.799 397.3 277.569 397.466 277.114C398.132 275.296 398.924 271.874 400.259 270.485Z" fill="black"/>
<path d="M372.252 368.241C373.315 366.974 376.071 369.399 376.991 370.066C380.663 372.729 383.899 375.884 386.904 379.267C387.815 380.295 389.846 382.171 388.62 383.642C387.773 384.658 385.554 384.817 384.336 385.024C380.619 385.658 376.876 386.12 373.126 386.491C372.191 386.583 368.946 387.439 368.319 386.567C367.669 385.664 368.513 383.215 368.689 382.212C369.276 378.863 370.044 375.55 370.933 372.27C371.268 371.036 371.402 369.253 372.252 368.241Z" fill="black"/>
<path d="M361.014 399.714C362.598 398.13 367.42 398.388 369.573 398.087C375.598 397.239 381.627 396.457 387.661 395.683C390.191 395.358 393.814 394.225 396.318 394.727C397.354 394.936 397.69 395.937 398.088 396.776C399.043 398.77 399.895 400.887 400.467 403.028C400.656 403.734 401.273 405.103 400.785 405.778C400.269 406.487 398.426 406.449 397.633 406.575C394.509 407.069 391.374 407.52 388.244 407.98C380.278 409.149 372.282 410.05 364.299 411.085C362.168 411.361 360.01 411.465 357.869 411.605C357.172 411.647 355.891 411.927 355.285 411.484C354.456 410.885 355.433 409.098 355.748 408.432C357.029 405.712 358.886 401.848 361.014 399.714Z" fill="black"/>
<path d="M333.253 438.169C334.092 434.844 338.271 431.388 340.474 428.833C341.344 427.827 342.272 426.287 343.459 425.65C344.587 425.044 346.201 425.119 347.447 424.93C350.446 424.476 353.457 424.091 356.466 423.685C365.906 422.409 375.33 420.982 384.773 419.711C389.16 419.12 393.556 418.469 397.963 418.058C399.419 417.919 401.631 417.241 403.026 417.819C403.854 418.163 404.131 419.2 404.422 419.961C405.178 421.952 405.664 424.132 405.982 426.236C406.096 427.001 406.429 428.531 405.637 429.031C403.993 430.073 400.604 429.916 398.689 430.205C392.914 431.079 387.117 431.808 381.341 432.68C374.778 433.675 368.195 434.583 361.615 435.456L361.38 435.487C355.033 436.33 348.665 437.176 342.286 437.73C339.335 437.986 336.206 438.629 333.253 438.169Z" fill="black"/>
<path d="M291.48 467.921C291.864 466.233 294.165 465.079 295.481 464.104C299.341 461.251 303.427 458.719 307.439 456.086C310.387 454.152 313.073 453.955 316.539 453.418C320.809 452.757 325.085 452.141 329.363 451.541C345.365 449.289 361.33 446.833 377.35 444.712C383.9 443.844 390.477 442.869 397.058 442.298C398.438 442.179 402.509 441.076 403.587 442.082C404.085 442.543 403.545 443.36 403.307 443.815C402.531 445.292 401.653 446.709 400.753 448.112C399.584 449.939 398.311 452.927 396.423 454.11C395.373 454.769 393.663 454.692 392.463 454.873C389.326 455.349 386.177 455.786 383.03 456.203C362.402 458.934 341.812 461.963 321.187 464.738C314.849 465.59 308.503 466.358 302.151 467.111C298.777 467.513 294.855 468.434 291.48 467.921Z" fill="black"/>
<path d="M243.607 498.748C248.189 495.508 252.671 492.103 257.183 488.767C259.058 487.381 261.193 485.169 263.354 484.3C265.824 483.308 269.244 483.357 271.882 483.011C277.466 482.277 283.042 481.464 288.62 480.68C307.079 478.083 325.54 475.512 344.015 473.025C352.67 471.862 361.345 470.817 370.027 469.88C372.544 469.608 377.542 468.166 379.785 469.487C376.607 473.474 371.561 475.961 367.512 478.925C365.62 480.309 363.293 482.583 361.057 483.302C358.671 484.072 355.824 484.049 353.343 484.398C347.615 485.205 341.878 485.965 336.145 486.737C315.08 489.57 294.045 492.626 272.97 495.376C266.092 496.273 259.232 497.311 252.357 498.222C249.522 498.597 245.442 498.408 242.852 499.431L243.607 498.748Z" fill="black"/>
<path d="M333.496 503.361C335.86 501.63 339.839 500.012 341.373 497.469L341.39 497.463C338.269 498.4 334.031 498.24 330.921 498.646C322.529 499.741 314.138 500.866 305.755 502.044C279.097 505.794 252.45 509.678 225.772 513.284C222.562 513.717 218.815 513.778 215.734 514.771C213.573 515.468 211.453 517.197 209.505 518.357C206.144 520.358 202.326 522.137 199.254 524.558C197.687 525.795 195.864 526.684 194.251 527.864C193.814 528.185 192.567 528.683 192.678 529.381C192.792 530.088 194.387 529.647 194.823 529.604C196.997 529.389 199.165 529.096 201.333 528.831C210.753 527.687 220.152 526.371 229.557 525.105C254.974 521.686 280.342 517.896 305.767 514.552C310.208 513.969 315.663 513.991 319.883 512.501C321.966 511.765 323.973 509.97 325.74 508.677C328.266 506.826 330.966 505.214 333.496 503.361Z" fill="black"/>
<path d="M293.468 527.852C292.179 529.989 288.27 531.161 286.101 532.259C282.765 533.948 279.604 535.949 276.135 537.375C272.348 538.933 268.382 539.769 264.396 540.61L264.148 540.662C236.468 546.515 208.001 548.955 180.047 553.184C171.751 554.44 163.405 555.432 155.086 556.533C152.928 556.82 150.768 557.116 148.603 557.353C147.619 557.461 146.644 557.755 145.751 557.246C147.808 554.679 151.471 552.911 154.264 551.248C157.212 549.493 160.487 546.773 163.754 545.722C166.07 544.973 168.825 544.981 171.235 544.626C176.803 543.81 182.379 543.009 187.96 542.274C211.642 539.16 235.274 535.611 258.928 532.286C266.446 531.229 273.968 530.202 281.494 529.206C285.588 528.664 289.785 527.798 293.914 527.819L293.468 527.852Z" fill="black"/>
<path d="M602.255 298.294C602.95 297.561 604.769 298.302 605.6 298.451C608.766 299.016 611.968 299.544 615.086 300.336C615.851 300.53 618.871 301.023 617.908 302.4C617.257 303.329 615.537 303.708 614.519 304.067C611.625 305.09 608.686 306.063 605.718 306.845C604.66 307.123 602.884 307.899 601.814 307.451C601.067 307.138 601.12 306.075 601.113 305.403C601.09 303.804 601.12 299.487 602.255 298.294Z" fill="black"/>
</g>
<path d="M601.958 298.469C602.654 297.736 604.473 298.476 605.303 298.626C608.47 299.19 611.672 299.719 614.79 300.511C615.554 300.704 618.574 301.198 617.611 302.575C616.961 303.504 615.241 303.883 614.223 304.241C611.329 305.265 608.389 306.238 605.421 307.019C604.363 307.298 602.587 308.074 601.517 307.626C600.771 307.312 600.823 306.25 600.816 305.577C600.793 303.979 600.824 299.662 601.958 298.469Z" fill="white" stroke="black" stroke-width="0.5"/>
<path d="M414.372 156.696L414.303 156.968C411.233 156.738 408.176 155.706 405.201 154.952C401.052 153.899 396.865 152.984 392.713 151.93C380.163 148.747 367.591 145.706 355.044 142.523L332.6 136.833C329.026 135.925 324.444 135.325 321.173 133.644C318.603 132.323 316.234 130.148 313.898 128.448C309.914 125.552 305.858 122.755 301.942 119.765C300.473 118.642 298.984 117.543 297.611 116.302C297.305 116.027 296.362 115.339 296.643 114.829C296.955 114.259 298.122 114.693 298.569 114.803C300.271 115.216 301.921 115.753 303.604 116.219C310.853 118.231 318.066 120.469 325.356 122.322C343.539 126.952 361.517 132.672 379.524 137.94C387.705 140.334 397.477 142.217 404.737 146.862C408.393 149.201 411.873 153.165 414.372 156.696Z" fill="#FF8A00"/>
<path d="M453.287 192.78L453.217 193.054C449.598 192.883 445.805 191.612 442.302 190.722C436.434 189.235 430.522 187.747 424.617 186.39C412.738 183.659 400.987 180.385 389.135 177.532C381.088 175.599 372.792 174.014 364.895 171.515C362.977 170.907 361.412 168.823 359.974 167.473C356.456 164.168 352.982 160.821 349.578 157.397C348.427 156.235 347.333 155.025 346.24 153.807C345.969 153.506 345.251 152.894 345.512 152.421C345.809 151.879 346.887 152.167 347.349 152.236C349.018 152.487 350.699 152.798 352.336 153.198C359.468 154.942 366.634 156.532 373.755 158.338C387.449 161.811 401.131 165.334 414.688 169.288C422.142 171.462 430.835 172.828 437.741 176.475C439.852 177.59 441.636 179.849 443.304 181.529C446.735 184.981 450.747 188.594 453.287 192.78Z" fill="#FF8A00"/>
<path d="M378.591 186.364C385.696 189.05 393.833 190.084 401.207 191.955C418.226 196.271 435.268 200.446 452.288 204.762L461.046 206.984C462.299 207.301 464.145 207.435 465.193 208.231C466.912 209.534 468.121 213.559 468.949 215.522C469.547 216.939 471.29 219.955 470.7 221.52C470.198 222.85 465.543 221.568 464.511 221.389C458.18 220.283 451.83 218.914 445.601 217.341C432.568 214.047 419.351 211.109 406.502 207.158C401.186 205.525 394.538 204.563 389.958 201.208C388.462 200.112 387.562 198.029 386.472 196.544C384.161 193.39 381.446 190.379 379.446 187.018L378.591 186.364Z" fill="#FF8A00"/>
<path d="M403.94 219.88C404.638 218.944 407.805 220.022 408.751 220.236C413.478 221.309 418.246 222.205 422.947 223.393C434.03 226.194 445.216 228.604 456.306 231.416C459.117 232.128 461.989 232.733 464.762 233.585C465.567 233.831 467.263 234.066 467.725 234.842C468.219 235.67 467.416 237.026 467.068 237.782C465.9 240.335 464.512 242.903 462.883 245.193C460.371 248.722 453.154 245.573 449.585 244.715C439.934 242.395 430.3 239.969 420.674 237.528L411.916 235.306C410.686 234.996 409.033 234.855 407.943 234.186C407.101 233.667 406.908 232.134 406.618 231.258C405.753 228.65 404.931 226.035 404.247 223.373C404.025 222.507 403.337 220.688 403.94 219.88Z" fill="#FF8A00"/>
<path d="M406.987 245.759C407.55 245.193 408.739 245.716 409.38 245.88L415.401 247.405C423.96 249.577 432.594 251.628 441.031 254.222C443.29 254.915 445.594 255.578 447.781 256.476L447.795 256.482C448.625 256.824 449.916 257.356 449.125 258.404C446.986 261.238 442.673 263.004 439.689 264.781C438.646 265.401 437.214 266.657 435.981 266.749C434.142 266.885 431.841 265.849 430.065 265.398L417.475 262.206L408.716 259.984C407.657 259.715 405.945 259.606 405.085 258.893C404.333 258.27 404.873 256.726 404.999 255.924C405.384 253.505 405.801 251.091 406.234 248.682C406.379 247.881 406.386 246.361 406.987 245.759Z" fill="#FF8A00"/>
<path d="M400.745 270.793C401.422 270.089 402.826 270.725 403.611 270.924C406.268 271.598 408.989 272.223 411.572 273.156L411.601 273.167C412.449 273.474 426.274 276.294 425.189 277.468C424.432 278.284 422.448 278.536 413.174 279.495C410.083 279.815 410.314 279.844 406.067 280.021C405.272 280.204 398.342 280.09 397.653 279.514C397.161 279.106 397.786 277.877 397.952 277.422C398.618 275.603 399.41 272.182 400.745 270.793Z" fill="#FF8A00"/>
<path d="M371.949 368.45C373.012 367.183 377.171 370.088 377.171 370.088C380.862 372.411 385.075 374.275 388.063 376.371C388.063 376.371 399.998 382.568 398.772 384.04C397.924 385.055 385.617 385.567 384.398 385.774C380.681 386.408 376.573 386.329 372.824 386.701C371.888 386.793 368.643 387.648 368.017 386.777C367.367 385.874 368.21 383.425 368.386 382.422C368.973 379.073 369.741 375.759 370.63 372.479C370.965 371.245 371.099 369.462 371.949 368.45Z" fill="#FF8A00"/>
<path d="M361.5 400.021C363.084 398.438 367.906 398.696 370.059 398.395C376.084 397.547 382.113 396.765 388.147 395.991C390.677 395.665 396.362 394.113 398.866 394.615C399.902 394.824 400.289 396.114 400.688 396.954C401.643 398.947 402.114 401.398 402.687 403.54C402.876 404.245 402.916 404.946 402.428 405.62C401.912 406.329 398.912 406.757 398.119 406.883C394.995 407.376 391.861 407.827 388.73 408.288C380.764 409.457 372.768 410.358 364.785 411.392C362.655 411.669 360.496 411.773 358.355 411.912C357.659 411.955 356.377 412.234 355.771 411.792C354.942 411.192 355.919 409.405 356.234 408.74C357.515 406.02 359.372 402.156 361.5 400.021Z" fill="#FF8A00"/>
<path d="M333.739 438.476C334.578 435.151 338.757 431.695 340.961 429.14C341.831 428.134 342.758 426.595 343.945 425.958C345.073 425.351 346.687 425.426 347.933 425.238C350.933 424.784 353.943 424.398 356.952 423.993C366.392 422.717 375.816 421.289 385.259 420.018C389.646 419.428 394.042 418.777 398.449 418.365C399.905 418.227 402.117 417.549 403.512 418.127C404.34 418.47 404.617 419.507 404.908 420.268C405.664 422.26 406.15 424.439 406.468 426.544C406.582 427.309 406.915 428.839 406.123 429.339C404.479 430.381 401.09 430.224 399.175 430.513C393.4 431.386 387.603 432.115 381.827 432.988C375.264 433.982 368.681 434.891 362.101 435.764L361.866 435.795C355.519 436.638 349.151 437.484 342.772 438.038C339.821 438.294 336.692 438.937 333.739 438.476Z" fill="#FF8A00"/>
<path d="M291.966 468.228C292.35 466.541 294.651 465.387 295.967 464.411C299.827 461.559 303.913 459.026 307.925 456.394C310.873 454.46 313.559 454.262 317.025 453.726C321.295 453.064 325.571 452.449 329.849 451.849C345.852 449.596 361.816 447.141 377.836 445.02C384.386 444.152 390.963 443.177 397.545 442.606C398.925 442.487 402.995 441.384 404.074 442.389C404.571 442.851 404.031 443.667 403.793 444.123C403.017 445.6 402.139 447.017 401.239 448.42C400.07 450.246 398.797 453.235 396.909 454.417C395.859 455.077 394.15 455 392.95 455.181C389.812 455.657 386.663 456.094 383.516 456.51C362.888 459.242 342.298 462.271 321.673 465.045C315.335 465.897 308.989 466.665 302.638 467.418C299.263 467.82 295.341 468.742 291.966 468.228Z" fill="#FF8A00"/>
<path d="M244.093 499.056C248.675 495.815 253.158 492.411 257.669 489.074C259.545 487.689 261.679 485.476 263.841 484.607C266.31 483.615 269.73 483.664 272.368 483.319C277.952 482.584 283.528 481.772 289.106 480.988C307.565 478.39 326.026 475.82 344.501 473.333C353.156 472.17 361.831 471.125 370.513 470.188C373.03 469.915 378.028 468.474 380.272 469.794C377.093 473.782 372.047 476.269 367.998 479.233C366.106 480.617 363.779 482.89 361.543 483.61C359.158 484.38 356.311 484.357 353.829 484.706C348.101 485.512 342.364 486.273 336.631 487.045C315.566 489.878 294.532 492.934 273.456 495.684C266.578 496.581 259.718 497.619 252.843 498.529C250.008 498.904 245.929 498.716 243.338 499.738L244.093 499.056Z" fill="#FF8A00"/>
<path d="M333.982 503.669C336.346 501.938 340.326 500.32 341.86 497.776L341.876 497.77C338.755 498.707 334.517 498.548 331.407 498.954C323.015 500.049 314.624 501.173 306.241 502.352C279.583 506.101 252.936 509.985 226.258 513.592C223.048 514.025 219.301 514.086 216.221 515.079C214.059 515.776 211.939 517.505 209.991 518.664C206.63 520.666 202.812 522.444 199.74 524.866C198.173 526.103 196.35 526.991 194.737 528.172C194.3 528.492 193.053 528.991 193.164 529.689C193.278 530.396 194.873 529.955 195.309 529.911C197.483 529.697 199.651 529.404 201.819 529.139C211.239 527.995 220.638 526.678 230.043 525.412C255.46 521.993 280.828 518.203 306.253 514.86C310.694 514.276 316.149 514.298 320.369 512.809C322.452 512.073 324.459 510.277 326.226 508.985C328.753 507.134 331.452 505.521 333.982 503.669Z" fill="#FF8A00"/>
<path d="M293.954 528.159C292.665 530.297 288.756 531.469 286.588 532.567C283.252 534.255 280.09 536.256 276.621 537.683C272.834 539.241 268.868 540.077 264.882 540.917L264.634 540.97C236.954 546.822 208.487 549.263 180.533 553.492C172.237 554.748 163.891 555.74 155.572 556.841C153.414 557.127 151.254 557.424 149.089 557.661C148.105 557.768 147.131 558.063 146.237 557.554C148.294 554.987 151.957 553.219 154.75 551.556C157.698 549.801 160.974 547.081 164.24 546.029C166.556 545.281 169.311 545.288 171.721 544.934C177.289 544.117 182.865 543.317 188.446 542.582C212.128 539.467 235.76 535.919 259.414 532.593C266.933 531.536 274.454 530.509 281.98 529.514C286.074 528.972 290.271 528.106 294.4 528.126L293.954 528.159Z" fill="#FF8A00"/>
<path d="M414.372 156.696L414.303 156.968C411.233 156.738 408.176 155.706 405.201 154.952C401.052 153.899 396.865 152.984 392.713 151.93C380.163 148.747 367.591 145.706 355.044 142.523L332.6 136.833C329.026 135.925 324.444 135.325 321.173 133.644C318.603 132.323 316.234 130.148 313.898 128.448C309.914 125.552 305.858 122.755 301.942 119.765C300.473 118.642 298.984 117.543 297.611 116.302C297.305 116.027 296.362 115.339 296.643 114.829C296.955 114.259 298.122 114.693 298.569 114.803C300.271 115.216 301.921 115.753 303.604 116.219C310.853 118.231 318.066 120.469 325.356 122.322C343.539 126.952 361.517 132.672 379.524 137.94C387.705 140.334 397.477 142.217 404.737 146.862C408.393 149.201 411.873 153.165 414.372 156.696Z" stroke="black" stroke-width="0.5"/>
<path d="M453.287 192.78L453.217 193.054C449.598 192.883 445.805 191.612 442.302 190.722C436.434 189.235 430.522 187.747 424.617 186.39C412.738 183.659 400.987 180.385 389.135 177.532C381.088 175.599 372.792 174.014 364.895 171.515C362.977 170.907 361.412 168.823 359.974 167.473C356.456 164.168 352.982 160.821 349.578 157.397C348.427 156.235 347.333 155.025 346.24 153.807C345.969 153.506 345.251 152.894 345.512 152.421C345.809 151.879 346.887 152.167 347.349 152.236C349.018 152.487 350.699 152.798 352.336 153.198C359.468 154.942 366.634 156.532 373.755 158.338C387.449 161.811 401.131 165.334 414.688 169.288C422.142 171.462 430.835 172.828 437.741 176.475C439.852 177.59 441.636 179.849 443.304 181.529C446.735 184.981 450.747 188.594 453.287 192.78Z" stroke="black" stroke-width="0.5"/>
<path d="M378.591 186.364C385.696 189.05 393.833 190.084 401.207 191.955C418.226 196.271 435.268 200.446 452.288 204.762L461.046 206.984C462.299 207.301 464.145 207.435 465.193 208.231C466.912 209.534 468.121 213.559 468.949 215.522C469.547 216.939 471.29 219.955 470.7 221.52C470.198 222.85 465.543 221.568 464.511 221.389C458.18 220.283 451.83 218.914 445.601 217.341C432.568 214.047 419.351 211.109 406.502 207.158C401.186 205.525 394.538 204.563 389.958 201.208C388.462 200.112 387.562 198.029 386.472 196.544C384.161 193.39 381.446 190.379 379.446 187.018L378.591 186.364Z" stroke="black" stroke-width="0.5"/>
<path d="M403.94 219.88C404.638 218.944 407.805 220.022 408.751 220.236C413.478 221.309 418.246 222.205 422.947 223.393C434.03 226.194 445.216 228.604 456.306 231.416C459.117 232.128 461.989 232.733 464.762 233.585C465.567 233.831 467.263 234.066 467.725 234.842C468.219 235.67 467.416 237.026 467.068 237.782C465.9 240.335 464.512 242.903 462.883 245.193C460.371 248.722 453.154 245.573 449.585 244.715C439.934 242.395 430.3 239.969 420.674 237.528L411.916 235.306C410.686 234.996 409.033 234.855 407.943 234.186C407.101 233.667 406.908 232.134 406.618 231.258C405.753 228.65 404.931 226.035 404.247 223.373C404.025 222.507 403.337 220.688 403.94 219.88Z" stroke="black" stroke-width="0.5"/>
<path d="M406.987 245.759C407.55 245.193 408.739 245.716 409.38 245.88L415.401 247.405C423.96 249.577 432.594 251.628 441.031 254.222C443.29 254.915 445.594 255.578 447.781 256.476L447.795 256.482C448.625 256.824 449.916 257.356 449.125 258.404C446.986 261.238 442.673 263.004 439.689 264.781C438.646 265.401 437.214 266.657 435.981 266.749C434.142 266.885 431.841 265.849 430.065 265.398L417.475 262.206L408.716 259.984C407.657 259.715 405.945 259.606 405.085 258.893C404.333 258.27 404.873 256.726 404.999 255.924C405.384 253.505 405.801 251.091 406.234 248.682C406.379 247.881 406.386 246.361 406.987 245.759Z" stroke="black" stroke-width="0.5"/>
<path d="M400.745 270.793C401.422 270.089 402.826 270.725 403.611 270.924C406.268 271.598 408.989 272.223 411.572 273.156L411.601 273.167C412.449 273.474 426.274 276.294 425.189 277.468C424.432 278.284 422.448 278.536 413.174 279.495C410.083 279.815 410.314 279.844 406.067 280.021C405.272 280.204 398.342 280.09 397.653 279.514C397.161 279.106 397.786 277.877 397.952 277.422C398.618 275.603 399.41 272.182 400.745 270.793Z" stroke="black" stroke-width="0.5"/>
<path d="M371.949 368.45C373.012 367.183 377.171 370.088 377.171 370.088C380.862 372.411 385.075 374.275 388.063 376.371C388.063 376.371 399.998 382.568 398.772 384.04C397.924 385.055 385.617 385.567 384.398 385.774C380.681 386.408 376.573 386.329 372.824 386.701C371.888 386.793 368.643 387.648 368.017 386.777C367.367 385.874 368.21 383.425 368.386 382.422C368.973 379.073 369.741 375.759 370.63 372.479C370.965 371.245 371.099 369.462 371.949 368.45Z" stroke="black" stroke-width="0.5"/>
<path d="M361.5 400.021C363.084 398.438 367.906 398.696 370.059 398.395C376.084 397.547 382.113 396.765 388.147 395.991C390.677 395.665 396.362 394.113 398.866 394.615C399.902 394.824 400.289 396.114 400.688 396.954C401.643 398.947 402.114 401.398 402.687 403.54C402.876 404.245 402.916 404.946 402.428 405.62C401.912 406.329 398.912 406.757 398.119 406.883C394.995 407.376 391.861 407.827 388.73 408.288C380.764 409.457 372.768 410.358 364.785 411.392C362.655 411.669 360.496 411.773 358.355 411.912C357.659 411.955 356.377 412.234 355.771 411.792C354.942 411.192 355.919 409.405 356.234 408.74C357.515 406.02 359.372 402.156 361.5 400.021Z" stroke="black" stroke-width="0.5"/>
<path d="M333.739 438.476C334.578 435.151 338.757 431.695 340.961 429.14C341.831 428.134 342.758 426.595 343.945 425.958C345.073 425.351 346.687 425.426 347.933 425.238C350.933 424.784 353.943 424.398 356.952 423.993C366.392 422.717 375.816 421.289 385.259 420.018C389.646 419.428 394.042 418.777 398.449 418.365C399.905 418.227 402.117 417.549 403.512 418.127C404.34 418.47 404.617 419.507 404.908 420.268C405.664 422.26 406.15 424.439 406.468 426.544C406.582 427.309 406.915 428.839 406.123 429.339C404.479 430.381 401.09 430.224 399.175 430.513C393.4 431.386 387.603 432.115 381.827 432.988C375.264 433.982 368.681 434.891 362.101 435.764L361.866 435.795C355.519 436.638 349.151 437.484 342.772 438.038C339.821 438.294 336.692 438.937 333.739 438.476Z" stroke="black" stroke-width="0.5"/>
<path d="M291.966 468.228C292.35 466.541 294.651 465.387 295.967 464.411C299.827 461.559 303.913 459.026 307.925 456.394C310.873 454.46 313.559 454.262 317.025 453.726C321.295 453.064 325.571 452.449 329.849 451.849C345.852 449.596 361.816 447.141 377.836 445.02C384.386 444.152 390.963 443.177 397.545 442.606C398.925 442.487 402.995 441.384 404.074 442.389C404.571 442.851 404.031 443.667 403.793 444.123C403.017 445.6 402.139 447.017 401.239 448.42C400.07 450.246 398.797 453.235 396.909 454.417C395.859 455.077 394.15 455 392.95 455.181C389.812 455.657 386.663 456.094 383.516 456.51C362.888 459.242 342.298 462.271 321.673 465.045C315.335 465.897 308.989 466.665 302.638 467.418C299.263 467.82 295.341 468.742 291.966 468.228Z" stroke="black" stroke-width="0.5"/>
<path d="M244.093 499.056C248.675 495.815 253.158 492.411 257.669 489.074C259.545 487.689 261.679 485.476 263.841 484.607C266.31 483.615 269.73 483.664 272.368 483.319C277.952 482.584 283.528 481.772 289.106 480.988C307.565 478.39 326.026 475.82 344.501 473.333C353.156 472.17 361.831 471.125 370.513 470.188C373.03 469.915 378.028 468.474 380.272 469.794C377.093 473.782 372.047 476.269 367.998 479.233C366.106 480.617 363.779 482.89 361.543 483.61C359.158 484.38 356.311 484.357 353.829 484.706C348.101 485.512 342.364 486.273 336.631 487.045C315.566 489.878 294.532 492.934 273.456 495.684C266.578 496.581 259.718 497.619 252.843 498.529C250.008 498.904 245.929 498.716 243.338 499.738L244.093 499.056Z" stroke="black" stroke-width="0.5"/>
<path d="M333.982 503.669C336.346 501.938 340.326 500.32 341.86 497.776L341.876 497.77C338.755 498.707 334.517 498.548 331.407 498.954C323.015 500.049 314.624 501.173 306.241 502.352C279.583 506.101 252.936 509.985 226.258 513.592C223.048 514.025 219.301 514.086 216.221 515.079C214.059 515.776 211.939 517.505 209.991 518.664C206.63 520.666 202.812 522.444 199.74 524.866C198.173 526.103 196.35 526.991 194.737 528.172C194.3 528.492 193.053 528.991 193.164 529.689C193.278 530.396 194.873 529.955 195.309 529.911C197.483 529.697 199.651 529.404 201.819 529.139C211.239 527.995 220.638 526.678 230.043 525.412C255.46 521.993 280.828 518.203 306.253 514.86C310.694 514.276 316.149 514.298 320.369 512.809C322.452 512.073 324.459 510.277 326.226 508.985C328.753 507.134 331.452 505.521 333.982 503.669Z" stroke="black" stroke-width="0.5"/>
<path d="M293.954 528.159C292.665 530.297 288.756 531.469 286.588 532.567C283.252 534.255 280.09 536.256 276.621 537.683C272.834 539.241 268.868 540.077 264.882 540.917L264.634 540.97C236.954 546.822 208.487 549.263 180.533 553.492C172.237 554.748 163.891 555.74 155.572 556.841C153.414 557.127 151.254 557.424 149.089 557.661C148.105 557.768 147.131 558.063 146.237 557.554C148.294 554.987 151.957 553.219 154.75 551.556C157.698 549.801 160.974 547.081 164.24 546.029C166.556 545.281 169.311 545.288 171.721 544.934C177.289 544.117 182.865 543.317 188.446 542.582C212.128 539.467 235.76 535.919 259.414 532.593C266.933 531.536 274.454 530.509 281.98 529.514C286.074 528.972 290.271 528.106 294.4 528.126L293.954 528.159Z" stroke="black" stroke-width="0.5"/>
<path d="M276.276 350.632L276.069 351.454C279.407 356.549 285.762 360.712 290.471 364.49C302.646 374.255 315.144 382.795 329.302 389.471C333.986 391.68 338.936 393.78 343.933 395.166C345.266 395.537 347.9 396.69 349.189 395.814C351.219 394.431 352.395 390.152 353.361 387.991C356.414 381.168 359.196 374.1 359.581 366.562C359.759 363.063 359.695 359.429 356.303 357.592C351.347 354.908 345.078 354.006 339.574 353.127C326.421 351.027 312.78 351.049 299.491 350.593L299.44 350.591C294.143 350.409 288.819 350.227 283.518 350.305C281.185 350.342 278.546 350.039 276.276 350.632Z" fill="#0A007A" stroke="black" stroke-width="0.5"/>
<path d="M553.357 325.61C555.742 323.733 558.651 322.43 561.304 321.005C569.497 316.6 578.11 313.327 587.075 310.817L587.164 310.792C589.936 310.015 592.847 309.198 595.721 308.947C596.555 308.873 598.416 308.525 598.647 309.698C599.066 311.806 595.975 315.237 594.868 316.882C590.432 323.474 585.088 329.841 579.386 335.372C560.926 353.276 541.024 369.924 521.087 386.154C515.707 390.531 510.445 395.057 505.051 399.419C503.2 400.916 500.672 403.859 498.322 404.45C497.393 404.686 497.354 403.587 497.448 402.953C497.705 401.232 498.419 399.532 499.045 397.918C501.769 390.917 504.599 383.95 507.838 377.171C514.659 362.897 524.413 349.511 536.16 338.878C541.6 333.954 547.647 330.114 553.357 325.61Z" fill="#0A007A" stroke="black" stroke-width="0.5"/>
</g>
<defs>
<filter id="filter0_i" x="-58.0679" y="-44.5955" width="721.949" height="700.315" filterUnits="userSpaceOnUse" color-interpolation-filters="sRGB">
<feFlood flood-opacity="0" result="BackgroundImageFix"/>
<feBlend mode="normal" in="SourceGraphic" in2="BackgroundImageFix" result="shape"/>
<feColorMatrix in="SourceAlpha" type="matrix" values="0 0 0 0 0 0 0 0 0 0 0 0 0 0 0 0 0 0 127 0" result="hardAlpha"/>
<feOffset dx="4" dy="4"/>
<feGaussianBlur stdDeviation="3"/>
<feComposite in2="hardAlpha" operator="arithmetic" k2="-1" k3="1"/>
<feColorMatrix type="matrix" values="0 0 0 0 1 0 0 0 0 1 0 0 0 0 1 0 0 0 0.44 0"/>
<feBlend mode="normal" in2="shape" result="effect1_innerShadow"/>
</filter>
<clipPath id="clip0">
<rect width="640" height="640" fill="white"/>
</clipPath>
</defs>
</svg>
